#!OML:ASF X:\für Bonn\!DataBase\2005_08_12_Daniel\c3d\Daniel.ASF
:FULLY-SPECIFIED
:DEGREES
62
root 1.55187 16.9605 -0.357467 -254.002 -88.4233 249.22
lowerback 24.9648 -2.85627 4.42431
upperback 5.24679 -3.11198 -1.3422
thorax -8.34534 -1.76606 -3.0138
lowerneck -6.3851 2.99986 1.20202
upperneck -6.75773 3.55403 -5.24054
head -0.908073 1.70006 -1.79431
rclavicle -1.3418e-014 -1.31198e-014
rhumerus -231.461 -191.76 78.1186
rradius 76.7196
rwrist 20.3493
rhand -18.5876 5.87533
rfingers 7.12502
rthumb 7.70323 -23.9644
lclavicle -1.3418e-014 -1.31198e-014
lhumerus -229.676 188.596 -78.408
lradius 83.1459
lwrist 19.4203
lhand -21.2484 364.61
lfingers 7.12502
lthumb 5.13448 34.5277
rfemur -8.10495 12.2805 20.7539
rtibia 34.2403
rfoot -32.9898 -20.5842
rtoes -8.33756
lfemur -19.8226 -10.2531 -11.3082
ltibia 46.4946
lfoot -22.5142 4.35464
ltoes -2.83111
63
root 1.5579 16.9624 -0.338894 -247.278 -88.3882 242.667
lowerback 25.1756 -2.91416 4.33147
upperback 5.24552 -3.20628 -1.35565
thorax -8.45948 -1.81197 -2.9378
lowerneck -6.61739 3.15853 1.35987
upperneck -6.99625 3.72738 -5.44767
head -0.931944 1.77834 -1.88539
rclavicle 6.85807e-015 -2.38542e-015
rhumerus -232.261 -191.435 78.3453
rradius 77.4721
rwrist 20.3218
rhand -18.4123 5.55545
rfingers 7.12502
rthumb 7.87239 -24.278
lclavicle 6.85807e-015 -2.38542e-015
lhumerus -230.01 188.606 -78.2982
lradius 83.0971
lwrist 20.1676
lhand -21.3862 364.669
lfingers 7.12502
lthumb 5.00143 34.5896
rfemur -8.56523 11.396 20.4008
rtibia 34.4375
rfoot -32.2108 -19.8603
rtoes -8.46467
lfemur -19.8519 -10.3582 -11.4366
ltibia 46.3188
lfoot -22.796 4.68872
ltoes -2.99857
64
root 1.56358 16.9625 -0.320564 -241.479 -88.3641 237.059
lowerback 25.3839 -2.97596 4.21389
upperback 5.20817 -3.30957 -1.37144
thorax -8.61229 -1.86127 -2.84608
lowerneck -6.85432 3.31518 1.5454
upperneck -7.19535 3.897 -5.67199
head -0.941282 1.85365 -1.98641
rclavicle 2.26615e-014 -1.59028e-015
rhumerus -233.055 -191.179 78.5296
rradius 78.1348
rwrist 20.2779
rhand -18.274 5.21432
rfingers 7.12502
rthumb 8.00588 -24.6141
lclavicle 2.26615e-014 -1.59028e-015
lhumerus -230.338 188.611 -78.1876
lradius 83.0241
lwrist 20.9602
lhand -21.4926 364.686
lfingers 7.12502
lthumb 4.89869 34.6097
rfemur -9.08026 10.4985 20.0409
rtibia 34.7155
rfoot -31.4872 -19.1692
rtoes -8.74752
lfemur -19.9105 -10.4601 -11.5435
ltibia 46.1438
lfoot -23.0703 4.83865
ltoes -2.83158
65
root 1.56892 16.9595 -0.300911 -234.81 -88.3574 230.571
lowerback 25.5759 -3.01874 4.0413
upperback 5.18977 -3.40527 -1.38563
thorax -8.73153 -1.90506 -2.72393
lowerneck -7.23508 3.47069 1.68102
upperneck -7.3278 4.06836 -5.87696
head -0.906277 1.92701 -2.06856
rclavicle -1.71949e-014 -2.38542e-015
rhumerus -233.702 -190.988 78.7103
rradius 78.6567
rwrist 20.276
rhand -18.1255 4.82324
rfingers 7.12502
rthumb 8.14918 -24.9996
lclavicle -1.71949e-014 -2.38542e-015
lhumerus -230.591 188.61 -78.0634
lradius 82.9275
lwrist 21.716
lhand -21.5934 364.734
lfingers 7.12502
lthumb 4.80142 34.6595
rfemur -9.61931 9.57597 19.6269
rtibia 35.0589
rfoot -30.7986 -18.406
rtoes -9.00787
lfemur -19.9741 -10.5059 -11.6821
ltibia 45.9846
lfoot -23.3305 4.86262
ltoes -2.33109
66
root 1.57381 16.9534 -0.281773 -228.796 -88.3656 224.727
lowerback 25.7722 -3.0677 3.81854
upperback 5.16512 -3.52096 -1.38677
thorax -8.85752 -1.95645 -2.551
lowerneck -7.61656 3.62647 1.85621
upperneck -7.45674 4.23423 -6.12489
head -0.867785 1.99604 -2.17169
rclavicle -4.77083e-015 1.11319e-014
rhumerus -234.263 -190.892 78.9081
rradius 79.0302
rwrist 20.303
rhand -17.917 4.59851
rfingers 7.12502
rthumb 8.35043 -25.2164
lclavicle -4.77083e-015 1.11319e-014
lhumerus -230.76 188.599 -77.9516
lradius 82.7906
lwrist 22.5701
lhand -21.6597 364.761
lfingers 7.12502
lthumb 4.73741 34.6884
rfemur -10.1672 8.66971 19.2213
rtibia 35.4741
rfoot -30.1951 -17.658
rtoes -9.1939
lfemur -20.0479 -10.5133 -11.823
ltibia 45.843
lfoot -23.5521 4.78496
ltoes -1.9031
